<svg width="42" height="40" viewBox="0 0 42 40" fill="none" xmlns="http://www.w3.org/2000/svg">
<path d="M19.6238 1.1736C20.1461 -0.0307208 21.8539 -0.0307213 22.3762 1.1736L27.165 12.2171C27.3824 12.7184 27.8551 13.0618 28.3989 13.1136L40.3818 14.2555C41.6886 14.38 42.2163 16.0043 41.2323 16.8731L32.2091 24.8402C31.7996 25.2018 31.6191 25.7575 31.7378 26.2908L34.3548 38.04C34.6402 39.3213 33.2585 40.3252 32.1281 39.6578L21.7626 33.5382C21.2921 33.2605 20.7079 33.2605 20.2374 33.5382L9.8719 39.6578C8.74153 40.3252 7.35981 39.3213 7.64519 38.04L10.2622 26.2908C10.3809 25.7575 10.2004 25.2018 9.79085 24.8402L0.767653 16.8731C-0.216344 16.0043 0.311424 14.38 1.61818 14.2555L13.6011 13.1136C14.1449 13.0618 14.6176 12.7184 14.835 12.2171L19.6238 1.1736Z" fill="#FFC97E"/>
</svg>
